# xmcd CD database file
# Copyright (C) 1993-1998 Ti Kan
# 
# Track frame offsets:
#     150
#     13887
#     33550
#     54257
#     74567
#     94315
#     113550
#     134435
#     153775
#     175237
# 
# Disc length: 2519 seconds
# 
# Revision: 1
# Processed by: cddbd v1.4b41PL1 Copyright (c) Steve Scherf et al.
# Submitted via: DiscPlay 4.0.4
# 
DISCID=8309d50a
DTITLE=Roger Whittaker - Best Loved Ballads
DYEAR=1900
DGENRE=
TTITLE0=The Most Beautiful Girl
TTITLE1=She Believes in Me
TTITLE2=For I loved Her
TTITLE3=Love Me Tender
TTITLE4=Leaving On A Jet Plane
TTITLE5=For the Good Times
TTITLE6=Try To Remember
TTITLE7=Always On My Mind
TTITLE8=Honey
TTITLE9=Gentle On My Mind
EXTD=
EXTT0=
EXTT1=
EXTT2=
EXTT3=
EXTT4=
EXTT5=
EXTT6=
EXTT7=
EXTT8=
EXTT9=
PLAYORDER=
